<?xml version="1.0" encoding="UTF-8" standalone="no"?>
<!DOCTYPE svg PUBLIC "-//W3C//DTD SVG 1.1//EN"
 "http://www.w3.org/Graphics/SVG/1.1/DTD/svg11.dtd">
<!-- Generated by graphviz version 2.36.0 (20140111.2315)
 -->
<!-- Title: %3 Pages: 1 -->
<svg width="356pt" height="98pt"
 viewBox="0.00 0.00 356.00 98.00" xmlns="http://www.w3.org/2000/svg" xmlns:xlink="http://www.w3.org/1999/xlink">
<g id="graph0" class="graph" transform="scale(1 1) rotate(0) translate(4 94)">
<title>%3</title>
<polygon fill="white" stroke="none" points="-4,4 -4,-94 352,-94 352,4 -4,4"/>
<!-- racine -->
<g id="node1" class="node"><title>racine</title>
<g id="a_node1"><a xlink:href="/concept/edit/1" xlink:title="racine">
<ellipse fill="none" stroke="black" cx="33" cy="-45" rx="32.4942" ry="18"/>
<text text-anchor="middle" x="33" y="-41.3" font-family="Times,serif" font-size="14.00">racine</text>
</a>
</g>
</g>
<!-- deux -->
<g id="node2" class="node"><title>deux</title>
<g id="a_node2"><a xlink:href="/concept/edit/2" xlink:title="deux">
<ellipse fill="none" stroke="black" cx="135" cy="-72" rx="27.8951" ry="18"/>
<text text-anchor="middle" x="135" y="-68.3" font-family="Times,serif" font-size="14.00">deux</text>
</a>
</g>
</g>
<!-- deux&#45;&gt;racine -->
<g id="edge1" class="edge"><title>deux&#45;&gt;racine</title>
<path fill="none" stroke="black" d="M109.024,-65.2564C97.996,-62.2789 84.7802,-58.7107 72.5343,-55.4043"/>
<polygon fill="black" stroke="black" points="73.1118,-51.9349 62.5451,-52.7072 71.2871,-58.6929 73.1118,-51.9349"/>
</g>
<!-- trois -->
<g id="node3" class="node"><title>trois</title>
<g id="a_node3"><a xlink:href="/concept/edit/3" xlink:title="trois">
<ellipse fill="none" stroke="black" cx="231" cy="-72" rx="27" ry="18"/>
<text text-anchor="middle" x="231" y="-68.3" font-family="Times,serif" font-size="14.00">trois</text>
</a>
</g>
</g>
<!-- trois&#45;&gt;deux -->
<g id="edge4" class="edge"><title>trois&#45;&gt;deux</title>
<path fill="none" stroke="black" d="M203.816,-72C194.381,-72 183.544,-72 173.342,-72"/>
<polygon fill="black" stroke="black" points="173.025,-68.5001 163.025,-72 173.025,-75.5001 173.025,-68.5001"/>
</g>
<!-- quatre -->
<g id="node4" class="node"><title>quatre</title>
<g id="a_node4"><a xlink:href="/concept/edit/4" xlink:title="quatre">
<ellipse fill="none" stroke="black" cx="135" cy="-18" rx="32.4942" ry="18"/>
<text text-anchor="middle" x="135" y="-14.3" font-family="Times,serif" font-size="14.00">quatre</text>
</a>
</g>
</g>
<!-- trois&#45;&gt;quatre -->
<g id="edge5" class="edge"><title>trois&#45;&gt;quatre</title>
<path fill="none" stroke="black" d="M210.065,-60.548C197.598,-53.3862 181.277,-44.0105 167.13,-35.8833"/>
<polygon fill="black" stroke="black" points="168.624,-32.7052 158.21,-30.7588 165.137,-38.7749 168.624,-32.7052"/>
</g>
<!-- quatre&#45;&gt;racine -->
<g id="edge2" class="edge"><title>quatre&#45;&gt;racine</title>
<path fill="none" stroke="black" d="M105.344,-25.7371C95.0925,-28.505 83.3673,-31.6708 72.4247,-34.6253"/>
<polygon fill="black" stroke="black" points="71.4021,-31.276 62.6602,-37.2618 73.2268,-38.034 71.4021,-31.276"/>
</g>
<!-- cinq -->
<g id="node5" class="node"><title>cinq</title>
<g id="a_node5"><a xlink:href="/concept/edit/5" xlink:title="cinq">
<ellipse fill="none" stroke="black" cx="231" cy="-18" rx="27" ry="18"/>
<text text-anchor="middle" x="231" y="-14.3" font-family="Times,serif" font-size="14.00">cinq</text>
</a>
</g>
</g>
<!-- cinq&#45;&gt;deux -->
<g id="edge6" class="edge"><title>cinq&#45;&gt;deux</title>
<path fill="none" stroke="black" d="M210.065,-29.452C197.156,-36.8678 180.115,-46.6573 165.634,-54.9764"/>
<polygon fill="black" stroke="black" points="163.484,-52.175 156.556,-60.1912 166.971,-58.2448 163.484,-52.175"/>
</g>
<!-- cinq&#45;&gt;quatre -->
<g id="edge3" class="edge"><title>cinq&#45;&gt;quatre</title>
<path fill="none" stroke="black" d="M203.816,-18C195.772,-18 186.71,-18 177.89,-18"/>
<polygon fill="black" stroke="black" points="177.724,-14.5001 167.724,-18 177.724,-21.5001 177.724,-14.5001"/>
</g>
<!-- six -->
<g id="node6" class="node"><title>six</title>
<g id="a_node6"><a xlink:href="/concept/edit/6" xlink:title="six">
<ellipse fill="none" stroke="black" cx="321" cy="-18" rx="27" ry="18"/>
<text text-anchor="middle" x="321" y="-14.3" font-family="Times,serif" font-size="14.00">six</text>
</a>
</g>
</g>
<!-- six&#45;&gt;cinq -->
<g id="edge7" class="edge"><title>six&#45;&gt;cinq</title>
<path fill="none" stroke="black" d="M293.597,-18C285.607,-18 276.689,-18 268.176,-18"/>
<polygon fill="black" stroke="black" points="268.081,-14.5001 258.081,-18 268.081,-21.5001 268.081,-14.5001"/>
</g>
</g>
</svg>
